<svg id="Layer_1" data-name="Layer 1" xmlns="http://www.w3.org/2000/svg" viewBox="0 0 236.53 230.62"><defs><style>.cls-1{fill:#00005b;}.cls-2{fill:#99f;}</style></defs><g id="Surfaces"><g id="Video_Audio_Surface" data-name="Video Audio Surface"><g id="Outline_no_shadow-3" data-name="Outline no shadow-3"><path id="path2194" class="cls-1" d="M26.56-23.15H210a50.27,50.27,0,0,1,50.3,50.23V203.47a50.27,50.27,0,0,1-50.23,50.3H26.56a50.27,50.27,0,0,1-50.3-50.23V27.15a50.27,50.27,0,0,1,50.23-50.3Z"/></g></g></g><g id="Outlined_Mnemonics_Logos" data-name="Outlined Mnemonics Logos"><g id="Ae"><path id="path2199" class="cls-2" d="M100.16,130.39H73.26l-5.49,17.06a1.28,1.28,0,0,1-1.37,1H52.8c-.8,0-1-.44-.8-1.31L75.29,80.39c.21-.74.43-1.38.73-2.25a23.91,23.91,0,0,0,.44-4.7.74.74,0,0,1,.58-.79H95.77c.51,0,.87.22.94.58l26.41,74.11c.22.79,0,1.15-.73,1.15H107.25a1.1,1.1,0,0,1-1.16-.79ZM77.46,116H95.81c-.44-1.52-1-3.32-1.67-5.2s-1.3-4.05-2-6.23-1.37-4.4-2.1-6.64-1.37-4.35-2-6.44-1.09-3.91-1.59-5.64h-.14A91.43,91.43,0,0,1,84,95.17c-1.09,3.47-2.21,7.08-3.34,10.7-.94,3.67-2.09,7.08-3.17,10.12Z"/><path id="path2201" class="cls-2" d="M166,123.73H143.05a15.94,15.94,0,0,0,2.24,6.44,11.5,11.5,0,0,0,5.28,4.34,22.66,22.66,0,0,0,9.26,1.81,44.23,44.23,0,0,0,7.52-.8,27.53,27.53,0,0,0,6.43-1.66c.36-.3.58-.15.58.58V145.5a3.59,3.59,0,0,1-.14.87,1.87,1.87,0,0,1-.51.5,31,31,0,0,1-7.23,2.21,49.09,49.09,0,0,1-10.27.87,34.25,34.25,0,0,1-13.88-2.53,24.43,24.43,0,0,1-9.12-6.88,26.44,26.44,0,0,1-5-9.51,37.53,37.53,0,0,1,.28-22.06,29.75,29.75,0,0,1,5.43-9.9,26.37,26.37,0,0,1,8.75-6.87c3.4-1.67,7.45-2.24,12.08-2.24A26.2,26.2,0,0,1,166,92.2,20.06,20.06,0,0,1,173.58,98a26.61,26.61,0,0,1,4.33,8.25,28.65,28.65,0,0,1,1.37,8.81c0,1.73-.07,3.25-.15,4.63s-.21,2.38-.28,3a1.08,1.08,0,0,1-1,.94c-.43,0-1.23.08-2.38.15a32.73,32.73,0,0,1-4.2.21c-1.66,0-3.39-.28-5.27-.28Zm-22.93-10.56h15.27c1.88,0,3.25,0,4.13-.07a3.56,3.56,0,0,0,1.66-.58v-.73a8.36,8.36,0,0,0-.44-2.68,9.54,9.54,0,0,0-9.4-6.65,10.19,10.19,0,0,0-9.62,5.49A15,15,0,0,0,143.05,113.17Z"/></g></g></svg>