<svg id="Layer_1" data-name="Layer 1" xmlns="http://www.w3.org/2000/svg" viewBox="0 0 274.96 232.9"><defs><style>.cls-1{fill:#00c5db;fill-rule:evenodd;}</style></defs><path class="cls-1" d="M126.89,27A12.23,12.23,0,0,0,140,15.39c4.65-3.87,10.47-3.78,15.58-2.77C182.52,25.54,223.52,23.77,257.48,24c-4.18,6.72-5.16,17.16-26,14.61-2.28,3.09,3.71,12.68-21,11.81-1,13-19.66,19.91-32.78,8.35-5.19,15.5-34.85,17-50.84,10.65Z" transform="translate(17.48 -0.55)"/><path class="cls-1" d="M113.11,27A12.23,12.23,0,0,1,100,15.39c-4.65-3.87-10.47-3.78-15.58-2.77C57.48,25.54,16.48,23.77-17.48,24c4.18,6.72,5.16,17.16,26,14.61,2.28,3.09-3.71,12.68,21,11.81,1,13,19.66,19.91,32.78,8.35,5.19,15.5,34.85,17,50.84,10.65Z" transform="translate(17.48 -0.55)"/><path class="cls-1" d="M123.35,99.6,124,20.89a10.58,10.58,0,1,0-8,.08s.09,77.4.09,78.62Z" transform="translate(17.48 -0.55)"/><path class="cls-1" d="M76.41,91.63c1.3-15.24,17.79-14.12,26.05-13.95,9.74,3.37,11.06,11.42,8.18,13.84-2.39,2-7,2.13-11.8.77l-5.23-3.7c-4.24-.93-7,.13-5,5.39,5.39,5.29,13,5.65,19.79,7.37-5.82,2-11.9,4.14-14.78,9.27C86.34,107.49,76.76,102.05,76.41,91.63Z" transform="translate(17.48 -0.55)"/><path class="cls-1" d="M145.69,110.62c7.32-3.13,16.9-8.57,17.24-19-1.29-15.24-17.78-14.12-26.05-13.95-9.73,3.37-11.06,11.42-8.17,13.84,2.39,2,7,2.13,11.8.77l5.23-3.7c4.24-.93,7,.13,5,5.39-5.35,5.25-12.95,5.64-19.65,7.34a82,82,0,0,1-11.27,1.32c-2.59.07-12.39.84-18.77,5.48-5.66,4.12-9.86,11.95-9.7,14.1a14.13,14.13,0,0,0,1.27,9.51,20.61,20.61,0,0,0,8.29,8.48c.5.26,1.86-1.8,6.32-4.23,2.23-1.22,5.23-2.26,6.78-3,.16-.08-2.77-1.24-4.83-3.4a7.71,7.71,0,0,1-2.25-6.43c.61-3.35,5-6.9,10.37-6.88.14,0,7-.51,14-1.74A104.43,104.43,0,0,0,145.69,110.62Z" transform="translate(17.48 -0.55)"/><path class="cls-1" d="M129,118.14c5.45.28,11.11-1.64,16.36-3.4,8,13.08.7,19.15-4.93,23.69-7.15,4.57-16,6.79-22.23,9.17-8.93,2.4-11.08,9.66-2.74,14.14a29.26,29.26,0,0,0-11.78,6.31c-2.1-1.89-14.42-8.7-4.72-21.38,8.4-10.1,20.45-9.72,29.41-15.37C129.86,129.75,137,125,129,118.14Z" transform="translate(17.48 -0.55)"/><path class="cls-1" d="M124.18,148.7c3.29-1.16,9.18-2.66,13-4.95,12.11,10.37,3.63,22.47-2,25.1-6.37,3.12-13.63,4.68-18.56,7.15-3.65,1.14-4.85,4-2.29,7.88-4.43,1.21-6,3.31-8.36,5.34-2.56-1.44-7.18-4.55-3.29-14.66,5.37-9.66,15-8.71,22.87-13.29C128.67,160.11,134.18,155.83,124.18,148.7Z" transform="translate(17.48 -0.55)"/><path class="cls-1" d="M123.8,176.31c2.17-.94,7.94-2.39,10.77-4.1,5.14,10-.64,17-3.65,19-4.63,3.09-10.56,3.47-14.34,4.7-3.3.43-2,6.64-2.18,9.4-1.87,1-.6.31-2.66,1.49-.88-1.73-8-4.57-6.14-12.25,4-7.2,9.83-7.35,15.66-10.76C123.59,182.92,128.55,180.48,123.8,176.31Z" transform="translate(17.48 -0.55)"/><path class="cls-1" d="M123.48,197.68c3.66-1.11,7.8-2.45,10.92-5.14,2.9,6.69-1.66,11.59-6.66,14.39-8.6,3.83-5.24,1.57-13.73,4.4,1.87-4.14,2.37-3.37,8.86-8.64C123.72,202,125.32,200.54,123.48,197.68Z" transform="translate(17.48 -0.55)"/><path class="cls-1" d="M116.06,214.7l7.36-2.93c-1,7.23-.43,17.23-3.09,21.68h-.62C117.34,230.19,116.7,221.68,116.06,214.7Z" transform="translate(17.48 -0.55)"/><polygon class="cls-1" points="133.53 198.6 140.96 197.13 140.95 199.21 133.53 203.32 133.53 198.6"/><polygon class="cls-1" points="133.64 178.47 141.03 175.8 141.02 178.71 133.64 182.56 133.64 178.47"/><polygon class="cls-1" points="133.66 150.98 141.05 148.31 141.09 158.61 133.52 161.16 133.66 150.98"/><polygon class="cls-1" points="133.5 118.96 141.25 118.02 141.19 129.9 133.5 132.31 133.5 118.96"/></svg>