<?xml version="1.0" encoding="utf-8"?>
<!-- Generator: Adobe Illustrator 25.2.0, SVG Export Plug-In . SVG Version: 6.00 Build 0)  -->
<svg version="1.0" id="Layer_1" xmlns="http://www.w3.org/2000/svg" xmlns:xlink="http://www.w3.org/1999/xlink" x="0px" y="0px"
	 viewBox="0 0 236.5 230.6" style="enable-background:new 0 0 236.5 230.6;" xml:space="preserve">
<style type="text/css">
	.st0{fill:#4B4B4D;}
	.st1{fill:#F38030;}
	.st2{fill:#F89B34;}
	.st3{fill-rule:evenodd;clip-rule:evenodd;fill:#231F20;}
	.st4{fill:#FFFFFF;}
	.st5{fill:#EAEBEC;}
</style>
<g>
	<polyline class="st0" points="118.2,226.8 53.7,208.9 39.3,47.7 197.2,47.7 182.9,208.8 	"/>
	<polyline class="st0" points="170.5,198.6 182.8,60.8 118.3,60.8 118.3,213.1 	"/>
	<polyline class="st0" points="122.4,3.8 122.4,12 131,24.2 123.1,24.2 123.1,33.9 147,33.9 147,24.6 139,14.5 147,14.5 147,3.8 	
		"/>
	<polyline class="st0" points="121.8,80.6 121.8,100.4 166,99.4 167.7,80.6 	"/>
	<polyline class="st0" points="158.8,120.6 121.8,120.6 121.8,140.4 147.1,138.8 144.8,165.2 121.8,171 121.8,191.6 158.7,181.3 
		159,178 163.7,125.9 164.2,120.6 	"/>
	<polyline class="st0" points="138.2,130.8 121.8,130.8 121.8,90.5 140,90.5 	"/>
	<polyline class="st0" points="114,170.9 88.5,163.6 87.7,152.5 74.9,150.3 77.7,181.3 114,191.4 	"/>
	<polyline class="st0" points="114,80.6 97.3,80.6 100.7,181.9 114,181.9 	"/>
	<polyline class="st0" points="103.7,3.8 103.7,24 99.6,24 99.6,20.2 89.6,20.2 89.6,33.9 113.8,33.9 113.8,3.8 	"/>
	<polyline class="st1" points="118.2,226.8 53.7,208.9 39.3,47.7 197.2,47.7 182.9,208.8 	"/>
	<polyline class="st2" points="170.5,198.6 182.8,60.8 118.3,60.8 118.3,213.1 	"/>
	<polyline class="st3" points="122.4,3.8 122.4,12 131,24.2 123.1,24.2 123.1,33.9 147,33.9 147,24.6 139,14.5 147,14.5 147,3.8 	
		"/>
	<polyline class="st4" points="121.8,80.6 121.8,100.4 166,99.4 167.7,80.6 	"/>
	<polyline class="st4" points="158.8,120.6 121.8,120.6 121.8,140.4 147.1,138.8 144.8,165.2 121.8,171 121.8,191.6 158.7,181.3 
		159,178 163.7,125.9 164.2,120.6 	"/>
	<polyline class="st4" points="138.2,130.8 121.8,130.8 121.8,90.5 140,90.5 	"/>
	<polyline class="st5" points="114,170.9 88.5,163.6 87.7,152.5 74.9,150.3 77.7,181.3 114,191.4 	"/>
	<polyline class="st5" points="114,80.6 97.3,80.6 100.7,181.9 114,181.9 	"/>
	<polyline class="st3" points="103.7,3.8 103.7,24 99.6,24 99.6,20.2 89.6,20.2 89.6,33.9 113.8,33.9 113.8,3.8 	"/>
</g>
</svg>
