<svg id="Layer_1" data-name="Layer 1" xmlns="http://www.w3.org/2000/svg" viewBox="0 0 210.7 233.08"><defs><style>.cls-1{fill:#15ff99;}.cls-2{fill:#fff;}</style></defs><path class="cls-1" d="M120.91,194.43c-6.67,0-13.34-.05-20,0a9.16,9.16,0,0,1-7.3-3.38,18,18,0,0,1-2.13-3.27A20.34,20.34,0,0,1,89.74,183c-.24-.93-.29-1.91-.47-2.86s-.49-1.88-.62-2.82a29.64,29.64,0,0,0-.66-3.14c-.55-2.27-1.23-4.5-2-6.7-.56-1.64-1.23-3.25-1.83-4.88A102.58,102.58,0,0,0,75,143.86c-1.24-2-2.75-3.83-4-5.81a90.92,90.92,0,0,1-7.7-14.69,33.87,33.87,0,0,1-1.8-6.67,63.32,63.32,0,0,1-1.11-10.82,54.92,54.92,0,0,1,9.24-32.13,61.58,61.58,0,0,1,22-20.09,62.45,62.45,0,0,1,14.77-5.78,60,60,0,0,1,11.68-1.79,58.59,58.59,0,0,1,20.75,2.8,61.79,61.79,0,0,1,24.51,14.46c1.53,1.47,3,3,4.36,4.65a56.5,56.5,0,0,1,6.47,9.13,54.32,54.32,0,0,1,6.34,17.73,60,60,0,0,1-1.6,27.09,45.26,45.26,0,0,1-2.63,6.16,80.27,80.27,0,0,1-6.64,11.56c-1.05,1.48-2.16,2.92-3.1,4.48a105.79,105.79,0,0,0-5.26,9.79,116,116,0,0,0-7.48,20.27c-.65,2.52-1.09,5.09-1.59,7.65a22.45,22.45,0,0,1-2.57,7.18,11.5,11.5,0,0,1-4.26,4.36,8,8,0,0,1-4,1.05H120.91ZM103.17,74.58a2.52,2.52,0,0,1,.07,1q0,12.87,0,25.73a7.89,7.89,0,0,0,1.89,5.26,12.34,12.34,0,0,0,4.14,3,5,5,0,0,0,2.25.46c6.14,0,12.28,0,18.43,0a6.54,6.54,0,0,0,3.29-.83c.4-.22.8-.43,1.17-.68a8.61,8.61,0,0,0,4.19-7.67c-.06-8.5,0-17,0-25.5v-.87a8.53,8.53,0,0,1,2,1,34,34,0,0,1,16.21,37.26c-2.23,10.41-8.26,18.14-17.27,23.63a.94.94,0,0,0-.56.93q0,22.9,0,45.82a.79.79,0,0,0,.11.59,2.1,2.1,0,0,0,1.44-.67,6.23,6.23,0,0,0,1.33-1.81,16.27,16.27,0,0,0,1.35-3.49c.35-1.26.62-2.54,1-3.78a142.32,142.32,0,0,1,5.49-14.63,128.65,128.65,0,0,1,11.75-22.3,61.33,61.33,0,0,0,6.42-12c.57-1.44,1.19-2.86,1.64-4.35s1-3,1.41-4.57a46.77,46.77,0,0,0,1.38-9,48.15,48.15,0,0,0-.3-8.4A38.85,38.85,0,0,0,171,94c-.35-1.4-.72-2.8-1.18-4.17a54.14,54.14,0,0,0-8-14.91,44.12,44.12,0,0,0-12.08-10.9A51.68,51.68,0,0,0,138,58.58a59.73,59.73,0,0,0-12-2.49,39.64,39.64,0,0,0-5.55-.31q-3.15.13-6.29.55A55.93,55.93,0,0,0,97.2,61.26,47.3,47.3,0,0,0,80.89,73.82a53,53,0,0,0-6.82,11,45.67,45.67,0,0,0-4.57,18A49.07,49.07,0,0,0,72,120a72.48,72.48,0,0,0,7.52,15.77c1.43,2.32,3,4.54,4.41,6.9a155.91,155.91,0,0,1,9,18.64c1.06,2.52,2,5,3,7.62a67.64,67.64,0,0,1,2.45,7.91,18.72,18.72,0,0,0,1.38,4,7.14,7.14,0,0,0,1.58,2.27,2.63,2.63,0,0,0,1.09.64c.29.09.5.06.48-.32,0-.12,0-.25,0-.37q0-22.84,0-45.67a.92.92,0,0,0-.53-.94,37.06,37.06,0,0,1-12.42-11.82,34.54,34.54,0,0,1,12.64-49.87A.83.83,0,0,1,103.17,74.58Z" transform="translate(-14.65 -0.46)"/><path class="cls-1" d="M120.1,207.91H102.43c-1.47,0-1.46,0-2.35-1.15-.63-.83-1.3-1.63-2-2.41a1.12,1.12,0,0,1,0-1.66c.91-1,1.8-2.07,2.68-3.12a1,1,0,0,1,.91-.42h.38q18.12,0,36.25,0a1.91,1.91,0,0,1,1.72.81c.71,1,1.52,1.86,2.29,2.79.53.64.53.93,0,1.58-.86,1-1.73,2.08-2.58,3.13a1.13,1.13,0,0,1-.9.46l-.75,0h-18Z" transform="translate(-14.65 -0.46)"/><path class="cls-1" d="M125.12,17.16c0,4.18,0,8.37,0,12.55a2.72,2.72,0,0,1-1.33,2.52c-.59.38-1.15.81-1.74,1.19a2.54,2.54,0,0,1-2.94-.05c-.69-.44-1.32-1-2-1.48a2.46,2.46,0,0,1-.87-1.77c0-.2,0-.4,0-.6,0-8.25,0-16.49,0-24.74A2.93,2.93,0,0,1,117.7,2c.56-.34,1.07-.75,1.62-1.1a2.31,2.31,0,0,1,2.74,0c.65.42,1.29.88,1.93,1.32a2.52,2.52,0,0,1,1.14,2.23V17.16Z" transform="translate(-14.65 -0.46)"/><path class="cls-1" d="M190.45,181.56a2.41,2.41,0,0,1-1.75-.63c-.76-.73-1.56-1.4-2.29-2.15-1.1-1.14-2.26-2.21-3.34-3.36-4.09-4.34-8.4-8.46-12.58-12.7a2.56,2.56,0,0,1-.76-2.4c.14-.71.26-1.42.4-2.14a2.41,2.41,0,0,1,2.05-2c.76-.15,1.53-.27,2.29-.42a2.29,2.29,0,0,1,1.9.49,4.24,4.24,0,0,1,.49.46q8.83,8.82,17.66,17.64a3,3,0,0,1,.93,1.43,2,2,0,0,1,.08.59,18.72,18.72,0,0,1-.62,3.24,2,2,0,0,1-1.4,1.37A31.08,31.08,0,0,1,190.45,181.56Z" transform="translate(-14.65 -0.46)"/><path class="cls-1" d="M174.37,56.32c-.61-.12-1.63-.26-2.62-.53a2.16,2.16,0,0,1-1.58-1.74c-.18-.81-.32-1.62-.46-2.44a2.38,2.38,0,0,1,.62-2.08c.13-.15.28-.29.42-.43q8.75-8.74,17.47-17.5a3,3,0,0,1,3.05-.94c.61.16,1.23.24,1.84.36A2.33,2.33,0,0,1,195,32.91c.2.85.35,1.71.48,2.58a2.2,2.2,0,0,1-.52,1.75,5.45,5.45,0,0,1-.46.5q-8.82,8.82-17.64,17.65A2.79,2.79,0,0,1,174.37,56.32Z" transform="translate(-14.65 -0.46)"/><path class="cls-1" d="M49.53,181.54a23.45,23.45,0,0,1-3-.6A2.12,2.12,0,0,1,45,179.29c-.2-.88-.35-1.77-.5-2.66a2.21,2.21,0,0,1,.49-1.76,5.45,5.45,0,0,1,.46-.5l17.71-17.7a3.53,3.53,0,0,1,.62-.54,2.17,2.17,0,0,1,1.71-.39l2.22.4a2.46,2.46,0,0,1,2.19,2.23c.12.67.22,1.33.36,2a2.35,2.35,0,0,1-.73,2.31Q65.26,167,61,171.24q-4.68,4.68-9.34,9.38A2.69,2.69,0,0,1,49.53,181.54Z" transform="translate(-14.65 -0.46)"/><path class="cls-1" d="M65.35,56.39a2.55,2.55,0,0,1-2.07-.84c-2.89-2.89-5.79-5.77-8.67-8.66-3-3-6.08-6.12-9.15-9.14a2.76,2.76,0,0,1-.88-2.85c.16-.63.23-1.28.35-1.92a2.35,2.35,0,0,1,1.91-2c.88-.19,1.77-.35,2.66-.48a2.21,2.21,0,0,1,1.75.54c.17.14.33.3.49.46q8.82,8.83,17.66,17.65A2.77,2.77,0,0,1,70.27,52c-.17.62-.22,1.28-.36,1.92a2.35,2.35,0,0,1-2,2C67,56.11,66.07,56.31,65.35,56.39Z" transform="translate(-14.65 -0.46)"/><path class="cls-1" d="M208.55,111.13H196.36c-.35,0-.7,0-1.05,0a1.73,1.73,0,0,1-1.56-1c-.4-.69-.87-1.34-1.31-2a2.3,2.3,0,0,1,0-2.74c.42-.63.86-1.23,1.28-1.86a2.49,2.49,0,0,1,2.22-1.15c5.9,0,11.79,0,17.68,0,2.59,0,5.17,0,7.75,0a2.52,2.52,0,0,1,2.29,1.18c.39.58.8,1.15,1.19,1.74a2.35,2.35,0,0,1,0,2.93c-.37.54-.76,1.06-1.11,1.61a2.76,2.76,0,0,1-2.53,1.32c-4,0-7.92,0-11.89,0Z" transform="translate(-14.65 -0.46)"/><path class="cls-1" d="M31,111.16H19c-.33,0-.65,0-1,0a1.67,1.67,0,0,1-1.52-.9c-.4-.66-.85-1.29-1.27-1.94a2.41,2.41,0,0,1,0-3.12c.33-.48.68-.94,1-1.43a2.85,2.85,0,0,1,2.69-1.43c6.49,0,13,0,19.47,0,1.9,0,3.81,0,5.71,0a2.48,2.48,0,0,1,2.28,1.19c.4.61.83,1.2,1.23,1.8a2.34,2.34,0,0,1,0,2.81c-.41.6-.83,1.19-1.23,1.79A2.6,2.6,0,0,1,44,111.15c-4.33,0-8.67,0-13,0Z" transform="translate(-14.65 -0.46)"/><path class="cls-1" d="M120.17,218.9c-5.16,0-10.33,0-15.49,0a1.62,1.62,0,0,1-1.5-.69c-.62-.81-1.21-1.64-1.89-2.4-.47-.52-.45-.77,0-1.31.73-.9,1.47-1.77,2.2-2.67a1.06,1.06,0,0,1,.91-.43h.52q15.38,0,30.75,0a1.76,1.76,0,0,1,1.59.75c.6.81,1.28,1.55,1.91,2.32s.5.82,0,1.44c-.71.87-1.44,1.73-2.15,2.61a1,1,0,0,1-.83.41h-16Z" transform="translate(-14.65 -0.46)"/><path class="cls-1" d="M108.3,223.28c9.19.12,18.39,0,27.59.06.92,0,.93,0,.77.92a8,8,0,0,1-2,3.94,14.59,14.59,0,0,1-6.66,4.09,24.53,24.53,0,0,1-17.19-.64,13.56,13.56,0,0,1-4.88-3.31,7.76,7.76,0,0,1-2.05-3.78,4.54,4.54,0,0,1-.09-.51c-.08-.76-.07-.76.67-.77Z" transform="translate(-14.65 -0.46)"/><path class="cls-2" d="M120.91,194.43c-6.67,0-13.34-.05-20,0a9.16,9.16,0,0,1-7.3-3.38,18,18,0,0,1-2.13-3.27A20.34,20.34,0,0,1,89.74,183c-.24-.93-.29-1.91-.47-2.86s-.49-1.88-.62-2.82a29.64,29.64,0,0,0-.66-3.14c-.55-2.27-1.23-4.5-2-6.7-.56-1.64-1.23-3.25-1.83-4.88A102.58,102.58,0,0,0,75,143.86c-1.24-2-2.75-3.83-4-5.81a90.92,90.92,0,0,1-7.7-14.69,33.87,33.87,0,0,1-1.8-6.67,63.32,63.32,0,0,1-1.11-10.82,54.92,54.92,0,0,1,9.24-32.13,61.58,61.58,0,0,1,22-20.09,62.45,62.45,0,0,1,14.77-5.78,60,60,0,0,1,11.68-1.79,58.59,58.59,0,0,1,20.75,2.8,61.79,61.79,0,0,1,24.51,14.46c1.53,1.47,3,3,4.36,4.65a56.5,56.5,0,0,1,6.47,9.13,54.32,54.32,0,0,1,6.34,17.73,60,60,0,0,1-1.6,27.09,45.26,45.26,0,0,1-2.63,6.16,80.27,80.27,0,0,1-6.64,11.56c-1.05,1.48-2.16,2.92-3.1,4.48a105.79,105.79,0,0,0-5.26,9.79,116,116,0,0,0-7.48,20.27c-.65,2.52-1.09,5.09-1.59,7.65a22.45,22.45,0,0,1-2.57,7.18,11.5,11.5,0,0,1-4.26,4.36,8,8,0,0,1-4,1.05H120.91ZM103.17,74.58a2.52,2.52,0,0,1,.07,1q0,12.87,0,25.73a7.89,7.89,0,0,0,1.89,5.26,12.34,12.34,0,0,0,4.14,3,5,5,0,0,0,2.25.46c6.14,0,12.28,0,18.43,0a6.54,6.54,0,0,0,3.29-.83c.4-.22.8-.43,1.17-.68a8.61,8.61,0,0,0,4.19-7.67c-.06-8.5,0-17,0-25.5v-.87a8.53,8.53,0,0,1,2,1,34,34,0,0,1,16.21,37.26c-2.23,10.41-8.26,18.14-17.27,23.63a.94.94,0,0,0-.56.93q0,22.9,0,45.82a.79.79,0,0,0,.11.59,2.1,2.1,0,0,0,1.44-.67,6.23,6.23,0,0,0,1.33-1.81,16.27,16.27,0,0,0,1.35-3.49c.35-1.26.62-2.54,1-3.78a142.32,142.32,0,0,1,5.49-14.63,128.65,128.65,0,0,1,11.75-22.3,61.33,61.33,0,0,0,6.42-12c.57-1.44,1.19-2.86,1.64-4.35s1-3,1.41-4.57a46.77,46.77,0,0,0,1.38-9,48.15,48.15,0,0,0-.3-8.4A38.85,38.85,0,0,0,171,94c-.35-1.4-.72-2.8-1.18-4.17a54.14,54.14,0,0,0-8-14.91,44.12,44.12,0,0,0-12.08-10.9A51.68,51.68,0,0,0,138,58.58a59.73,59.73,0,0,0-12-2.49,39.64,39.64,0,0,0-5.55-.31q-3.15.13-6.29.55A55.93,55.93,0,0,0,97.2,61.26,47.3,47.3,0,0,0,80.89,73.82a53,53,0,0,0-6.82,11,45.67,45.67,0,0,0-4.57,18A49.07,49.07,0,0,0,72,120a72.48,72.48,0,0,0,7.52,15.77c1.43,2.32,3,4.54,4.41,6.9a155.91,155.91,0,0,1,9,18.64c1.06,2.52,2,5,3,7.62a67.64,67.64,0,0,1,2.45,7.91,18.72,18.72,0,0,0,1.38,4,7.14,7.14,0,0,0,1.58,2.27,2.63,2.63,0,0,0,1.09.64c.29.09.5.06.48-.32,0-.12,0-.25,0-.37q0-22.84,0-45.67a.92.92,0,0,0-.53-.94,37.06,37.06,0,0,1-12.42-11.82,34.54,34.54,0,0,1,12.64-49.87A.83.83,0,0,1,103.17,74.58Z" transform="translate(-14.65 -0.46)"/><path class="cls-2" d="M120.1,207.91H102.43c-1.47,0-1.46,0-2.35-1.15-.63-.83-1.3-1.63-2-2.41a1.12,1.12,0,0,1,0-1.66c.91-1,1.8-2.07,2.68-3.12a1,1,0,0,1,.91-.42h.38q18.12,0,36.25,0a1.91,1.91,0,0,1,1.72.81c.71,1,1.52,1.86,2.29,2.79.53.64.53.93,0,1.58-.86,1-1.73,2.08-2.58,3.13a1.13,1.13,0,0,1-.9.46l-.75,0h-18Z" transform="translate(-14.65 -0.46)"/><path class="cls-2" d="M125.12,17.16c0,4.18,0,8.37,0,12.55a2.72,2.72,0,0,1-1.33,2.52c-.59.38-1.15.81-1.74,1.19a2.54,2.54,0,0,1-2.94-.05c-.69-.44-1.32-1-2-1.48a2.46,2.46,0,0,1-.87-1.77c0-.2,0-.4,0-.6,0-8.25,0-16.49,0-24.74A2.93,2.93,0,0,1,117.7,2c.56-.34,1.07-.75,1.62-1.1a2.31,2.31,0,0,1,2.74,0c.65.42,1.29.88,1.93,1.32a2.52,2.52,0,0,1,1.14,2.23V17.16Z" transform="translate(-14.65 -0.46)"/><path class="cls-2" d="M190.45,181.56a2.41,2.41,0,0,1-1.75-.63c-.76-.73-1.56-1.4-2.29-2.15-1.1-1.14-2.26-2.21-3.34-3.36-4.09-4.34-8.4-8.46-12.58-12.7a2.56,2.56,0,0,1-.76-2.4c.14-.71.26-1.42.4-2.14a2.41,2.41,0,0,1,2.05-2c.76-.15,1.53-.27,2.29-.42a2.29,2.29,0,0,1,1.9.49,4.24,4.24,0,0,1,.49.46q8.83,8.82,17.66,17.64a3,3,0,0,1,.93,1.43,2,2,0,0,1,.08.59,18.72,18.72,0,0,1-.62,3.24,2,2,0,0,1-1.4,1.37A31.08,31.08,0,0,1,190.45,181.56Z" transform="translate(-14.65 -0.46)"/><path class="cls-2" d="M174.37,56.32c-.61-.12-1.63-.26-2.62-.53a2.16,2.16,0,0,1-1.58-1.74c-.18-.81-.32-1.62-.46-2.44a2.38,2.38,0,0,1,.62-2.08c.13-.15.28-.29.42-.43q8.75-8.74,17.47-17.5a3,3,0,0,1,3.05-.94c.61.16,1.23.24,1.84.36A2.33,2.33,0,0,1,195,32.91c.2.85.35,1.71.48,2.58a2.2,2.2,0,0,1-.52,1.75,5.45,5.45,0,0,1-.46.5q-8.82,8.82-17.64,17.65A2.79,2.79,0,0,1,174.37,56.32Z" transform="translate(-14.65 -0.46)"/><path class="cls-2" d="M49.53,181.54a23.45,23.45,0,0,1-3-.6A2.12,2.12,0,0,1,45,179.29c-.2-.88-.35-1.77-.5-2.66a2.21,2.21,0,0,1,.49-1.76,5.45,5.45,0,0,1,.46-.5l17.71-17.7a3.53,3.53,0,0,1,.62-.54,2.17,2.17,0,0,1,1.71-.39l2.22.4a2.46,2.46,0,0,1,2.19,2.23c.12.67.22,1.33.36,2a2.35,2.35,0,0,1-.73,2.31Q65.26,167,61,171.24q-4.68,4.68-9.34,9.38A2.69,2.69,0,0,1,49.53,181.54Z" transform="translate(-14.65 -0.46)"/><path class="cls-2" d="M65.35,56.39a2.55,2.55,0,0,1-2.07-.84c-2.89-2.89-5.79-5.77-8.67-8.66-3-3-6.08-6.12-9.15-9.14a2.76,2.76,0,0,1-.88-2.85c.16-.63.23-1.28.35-1.92a2.35,2.35,0,0,1,1.91-2c.88-.19,1.77-.35,2.66-.48a2.21,2.21,0,0,1,1.75.54c.17.14.33.3.49.46q8.82,8.83,17.66,17.65A2.77,2.77,0,0,1,70.27,52c-.17.62-.22,1.28-.36,1.92a2.35,2.35,0,0,1-2,2C67,56.11,66.07,56.31,65.35,56.39Z" transform="translate(-14.65 -0.46)"/><path class="cls-2" d="M208.55,111.13H196.36c-.35,0-.7,0-1.05,0a1.73,1.73,0,0,1-1.56-1c-.4-.69-.87-1.34-1.31-2a2.3,2.3,0,0,1,0-2.74c.42-.63.86-1.23,1.28-1.86a2.49,2.49,0,0,1,2.22-1.15c5.9,0,11.79,0,17.68,0,2.59,0,5.17,0,7.75,0a2.52,2.52,0,0,1,2.29,1.18c.39.58.8,1.15,1.19,1.74a2.35,2.35,0,0,1,0,2.93c-.37.54-.76,1.06-1.11,1.61a2.76,2.76,0,0,1-2.53,1.32c-4,0-7.92,0-11.89,0Z" transform="translate(-14.65 -0.46)"/><path class="cls-2" d="M31,111.16H19c-.33,0-.65,0-1,0a1.67,1.67,0,0,1-1.52-.9c-.4-.66-.85-1.29-1.27-1.94a2.41,2.41,0,0,1,0-3.12c.33-.48.68-.94,1-1.43a2.85,2.85,0,0,1,2.69-1.43c6.49,0,13,0,19.47,0,1.9,0,3.81,0,5.71,0a2.48,2.48,0,0,1,2.28,1.19c.4.61.83,1.2,1.23,1.8a2.34,2.34,0,0,1,0,2.81c-.41.6-.83,1.19-1.23,1.79A2.6,2.6,0,0,1,44,111.15c-4.33,0-8.67,0-13,0Z" transform="translate(-14.65 -0.46)"/><path class="cls-2" d="M120.17,218.9c-5.16,0-10.33,0-15.49,0a1.62,1.62,0,0,1-1.5-.69c-.62-.81-1.21-1.64-1.89-2.4-.47-.52-.45-.77,0-1.31.73-.9,1.47-1.77,2.2-2.67a1.06,1.06,0,0,1,.91-.43h.52q15.38,0,30.75,0a1.76,1.76,0,0,1,1.59.75c.6.81,1.28,1.55,1.91,2.32s.5.82,0,1.44c-.71.87-1.44,1.73-2.15,2.61a1,1,0,0,1-.83.41h-16Z" transform="translate(-14.65 -0.46)"/><path class="cls-2" d="M108.3,223.28c9.19.12,18.39,0,27.59.06.92,0,.93,0,.77.92a8,8,0,0,1-2,3.94,14.59,14.59,0,0,1-6.66,4.09,24.53,24.53,0,0,1-17.19-.64,13.56,13.56,0,0,1-4.88-3.31,7.76,7.76,0,0,1-2.05-3.78,4.54,4.54,0,0,1-.09-.51c-.08-.76-.07-.76.67-.77Z" transform="translate(-14.65 -0.46)"/></svg>