<svg id="Layer_1" data-name="Layer 1" xmlns="http://www.w3.org/2000/svg" viewBox="0 0 101.07 230.62"><defs><style>.cls-1{fill:#fff;}</style></defs><path class="cls-1" d="M120.73,170.05l37.74,25.73s-16.73,32.37-40.26,26.68v.32c-23.72,6.11-40.61-26.6-40.61-26.6l38.09-26v-52L115,116S70.05,64.27,74.72,55.65h90.93s-36.66,55-47.8,57.5l2.7,3.24.18.21Z" transform="translate(-67.73)"/><path class="cls-1" d="M168.8,180.11a50.57,50.57,0,0,1-50.51,50.51c-13.44,0-26.18-5.78-35.88-16.26-9.3-10.05-14.68-20.87-14.68-34.24.77-30.06,40.41-52.95,45.32-57.25-4.56,4.24-34.83,36.11-33,57.25a38.27,38.27,0,1,0,76.54,0c0-8.44-7.37-21.81-20.76-37.65-4.7-5.57-13.81-14.61-20.3-21-4.38-4-17.36-16.58-24-24.05C75.77,79.74,67.78,64.82,67.78,53.11A54.94,54.94,0,0,1,82.41,16.26C92.11,5.78,104.85,0,118.29,0c27.85,0,50.46,25,50.46,52.89-.68,25.91-39.56,51.3-44.43,55.85,4.51-4.45,32.47-35.54,32-55.85,0-21.11-16.95-40.67-38.06-40.67C97.89,12.22,80,31.33,80,53.11c0,8.36,7.3,21.2,20.57,36.13,4.83,5.44,20.09,20,26.6,26.07,4.36,4.25,11.14,11.16,18,19.26C160.85,153.14,168.8,168.46,168.8,180.11Z" transform="translate(-67.73)"/></svg>